<?xml version="1.0" standalone="no"?>
<!DOCTYPE svg PUBLIC "-//W3C//DTD SVG 20010904//EN"
 "http://www.w3.org/TR/2001/REC-SVG-20010904/DTD/svg10.dtd">
<svg version="1.0" xmlns="http://www.w3.org/2000/svg"
 width="1275.000000pt" height="1651.000000pt" viewBox="0 0 1275.000000 1651.000000"
 preserveAspectRatio="xMidYMid meet" fill="currentColor">
<metadata>
Created by potrace 1.15, written by Peter Selinger 2001-2017
</metadata>
<g transform="translate(0.000000,1651.000000) scale(0.100000,-0.100000)"
fill="#000000" stroke="none">
<path d="M3475 14714 c-207 -29 -482 -37 -1040 -30 -302 3 -578 9 -612 13
l-63 6 0 -86 0 -86 88 -26 c126 -37 168 -59 189 -97 15 -29 18 -81 26 -398 12
-491 2 -1932 -14 -1994 -17 -68 -57 -98 -183 -137 l-106 -32 0 -84 0 -84 163
8 c204 10 1338 10 1552 0 l160 -8 34 408 c19 224 37 427 39 451 l4 42 -55 0
-55 0 -72 -217 c-84 -254 -115 -318 -183 -379 -80 -72 -103 -76 -479 -72 -287
3 -327 5 -356 21 -43 24 -79 81 -92 146 -6 32 -10 253 -10 544 l0 490 223 -6
c122 -3 238 -10 259 -16 48 -15 94 -64 113 -120 8 -25 21 -91 30 -146 24 -159
16 -145 90 -145 l64 0 -2 368 c-1 202 2 447 6 545 l8 177 -65 0 c-60 0 -66 -2
-71 -22 -2 -13 -16 -88 -30 -168 -14 -80 -33 -162 -42 -183 -32 -75 -127 -97
-420 -97 l-163 0 0 578 c0 436 3 581 12 590 9 9 112 12 401 12 378 0 391 -1
423 -21 70 -43 111 -150 165 -426 l33 -173 62 0 61 0 7 288 c3 158 9 353 12
435 6 122 4 147 -7 146 -8 -1 -54 -8 -104 -15z"/>
<path d="M4200 14223 c-35 -218 -109 -406 -199 -505 -53 -58 -142 -112 -203
-123 l-38 -7 0 -79 0 -79 129 0 130 0 4 -702 c3 -619 6 -711 20 -766 70 -261
259 -387 492 -327 149 39 261 139 315 279 7 19 2 34 -24 76 l-33 53 -31 -45
c-43 -62 -116 -108 -185 -115 -107 -11 -168 35 -210 157 -22 64 -22 74 -25
738 l-3 673 48 -6 c91 -12 388 -42 391 -40 6 5 24 276 19 282 -6 6 -318 -12
-404 -23 l-43 -5 0 320 0 321 -69 0 -68 0 -13 -77z"/>
<path d="M5441 13734 c-247 -66 -383 -287 -369 -598 12 -261 108 -402 390
-576 168 -105 222 -147 275 -216 53 -69 73 -135 73 -241 0 -136 -45 -227 -136
-273 -40 -20 -63 -25 -129 -25 -70 0 -87 4 -134 30 -97 54 -114 88 -233 473
-9 31 -12 32 -62 32 l-52 0 1 -295 0 -295 85 -34 c325 -129 596 -102 776 78
172 172 217 507 101 751 -65 134 -136 201 -381 357 -231 147 -294 219 -316
356 -30 186 79 323 259 324 75 1 131 -19 174 -60 41 -39 50 -60 91 -228 31
-125 41 -151 54 -148 10 1 33 6 53 9 l37 6 7 146 c4 81 13 194 19 252 l12 104
-53 23 c-130 58 -413 83 -542 48z"/>
<path d="M6760 13693 c-106 -9 -219 -12 -357 -8 l-203 6 0 -75 0 -75 63 -33
c56 -30 65 -39 93 -98 33 -66 133 -376 268 -825 133 -444 296 -1009 296 -1028
0 -27 -88 -201 -146 -289 -154 -234 -388 -333 -468 -197 -14 24 -66 319 -66
377 0 8 -15 12 -42 12 -87 0 -81 11 -106 -203 -13 -106 -30 -234 -38 -285 -15
-88 -15 -94 2 -113 52 -58 195 -109 306 -109 149 0 259 49 379 169 101 102
148 171 235 346 98 198 135 306 410 1190 140 451 264 844 275 874 26 71 51
105 97 132 20 12 54 38 75 58 37 35 37 36 37 114 l0 79 -57 -7 c-72 -9 -415
-9 -488 0 l-55 7 0 -78 0 -79 60 -23 c69 -27 116 -75 126 -128 9 -49 -8 -121
-118 -489 -136 -457 -251 -816 -259 -808 -3 5 -47 157 -97 338 -178 646 -242
898 -242 950 0 75 47 117 163 146 l47 11 0 79 c0 69 -2 79 -17 78 -10 -1 -88
-8 -173 -16z"/>
</g>
</svg>
